<?xml version="1.0" standalone="no"?>
<!DOCTYPE svg PUBLIC "-//W3C//DTD SVG 20010904//EN"
 "http://www.w3.org/TR/2001/REC-SVG-20010904/DTD/svg10.dtd">
<svg version="1.0" xmlns="http://www.w3.org/2000/svg"
 width="3556.000000pt" height="2000.000000pt" viewBox="0 0 3556.000000 2000.000000"
 preserveAspectRatio="xMidYMid meet">

<g transform="translate(0.000000,2000.000000) scale(0.100000,-0.100000)"
fill="#000000" stroke="none">
<path d="M17553 18131 c-91 -33 -155 -74 -224 -143 -121 -120 -187 -296 -175
-462 3 -43 7 -80 8 -81 2 -2 27 2 56 8 l53 11 -7 56 c-24 214 136 446 352 510
l40 12 -10 54 c-11 62 -14 63 -93 35z"/>
<path d="M24995 16942 c-39 -21 -89 -51 -112 -65 -24 -15 -45 -27 -48 -27 -3
0 -22 -11 -43 -23 -37 -24 -274 -162 -341 -199 -20 -11 -79 -45 -131 -75 -52
-31 -135 -79 -185 -108 -49 -29 -211 -123 -360 -208 -148 -85 -335 -193 -415
-239 -133 -78 -281 -163 -715 -413 -88 -51 -261 -151 -385 -223 -124 -71 -355
-205 -515 -297 -656 -378 -836 -482 -950 -548 -106 -62 -238 -138 -345 -199
-19 -11 -118 -68 -220 -127 -102 -59 -266 -154 -365 -211 -99 -56 -200 -115
-225 -130 -25 -15 -153 -90 -285 -166 -298 -171 -894 -514 -1075 -619 -74 -43
-154 -91 -176 -106 -47 -32 -104 -105 -134 -170 -19 -44 -20 -72 -20 -2852 0
-3041 -4 -2842 52 -2901 13 -14 49 -39 82 -55 65 -35 119 -40 184 -17 23 8 44
11 46 7 3 -4 -8 -23 -23 -42 -93 -112 -111 -233 -54 -349 43 -87 96 -135 233
-215 63 -36 120 -72 126 -80 6 -8 22 -15 36 -15 51 0 249 -41 337 -70 207 -67
385 -199 451 -335 17 -33 30 -65 30 -72 0 -7 7 -13 16 -13 16 0 222 -113 322
-176 29 -19 54 -34 57 -34 2 0 26 -13 53 -29 26 -15 68 -39 93 -53 24 -14 96
-56 159 -93 63 -37 150 -87 193 -111 44 -24 84 -47 90 -52 7 -6 48 -30 92 -54
73 -41 376 -215 630 -363 55 -32 116 -67 135 -78 19 -10 72 -41 116 -68 45
-27 85 -49 88 -49 4 0 25 -12 47 -26 23 -14 62 -37 87 -51 26 -14 66 -39 90
-54 24 -16 45 -29 48 -29 4 0 31 -15 62 -34 32 -18 89 -51 127 -73 39 -22 111
-64 160 -93 233 -138 290 -157 403 -140 78 12 118 31 347 164 94 54 184 107
200 116 196 113 352 204 360 210 6 4 32 19 58 34 47 26 202 115 677 389 378
218 483 279 530 305 25 14 61 35 80 47 19 12 55 33 80 47 25 14 106 60 180
103 74 43 160 92 190 108 30 17 66 38 80 47 14 10 117 70 230 135 113 65 248
143 300 173 52 30 113 65 135 77 39 21 199 114 1100 635 231 134 492 284 580
335 88 51 205 118 260 150 247 143 694 400 735 423 25 14 50 28 55 32 6 5 84
50 175 102 91 52 210 121 265 153 55 32 174 100 265 152 186 107 234 148 281
240 48 94 51 162 11 247 -17 35 -49 85 -72 110 -45 49 -77 68 -725 441 -252
145 -238 137 -448 259 -81 47 -150 86 -152 86 -3 0 -5 -150 -5 -332 0 -313 -1
-335 -20 -365 -26 -44 41 -3 -880 -533 -565 -325 -736 -424 -840 -485 -201
-117 -269 -155 -278 -155 -5 0 -26 -12 -48 -26 -21 -14 -144 -87 -273 -162
-130 -74 -319 -184 -421 -242 -102 -59 -261 -151 -355 -205 -93 -54 -244 -141
-335 -193 -91 -52 -169 -98 -175 -102 -5 -4 -35 -21 -65 -37 -30 -17 -84 -47
-120 -69 -109 -64 -203 -52 -244 34 -14 29 -16 251 -16 2276 0 1234 -3 2264
-6 2288 l-6 46 -37 -25 c-20 -14 -61 -38 -91 -55 -61 -32 -80 -43 -259 -147
-68 -39 -127 -71 -132 -71 -5 0 -9 -4 -9 -8 0 -5 -19 -19 -42 -31 -68 -36
-136 -74 -238 -132 -52 -31 -102 -58 -110 -62 -8 -4 -44 -25 -79 -47 -34 -22
-65 -40 -68 -40 -2 0 -23 -13 -46 -29 -23 -16 -71 -44 -107 -63 -36 -18 -83
-45 -105 -59 -22 -14 -61 -36 -86 -49 l-47 -22 -48 26 c-78 43 -92 55 -74 66
14 9 274 161 395 232 28 16 69 38 92 50 l41 21 2 619 c1 616 1 618 -20 618
-11 0 -20 -4 -20 -10 0 -5 -7 -10 -15 -10 -8 0 -15 -4 -15 -9 0 -5 -9 -11 -20
-14 -14 -3 -21 1 -27 17 -4 11 -6 25 -5 29 1 4 -5 15 -13 23 -8 9 -13 19 -10
24 3 5 1 11 -5 15 -5 3 -10 13 -10 21 0 8 -18 61 -39 117 -22 56 -47 124 -57
150 -12 33 -20 44 -25 35 -5 -7 -9 -9 -9 -4 0 5 -6 4 -12 -2 -7 -5 -44 -26
-83 -47 -38 -21 -77 -43 -85 -50 -16 -13 -93 -58 -152 -90 -113 -61 -213 -120
-216 -127 -2 -4 -8 -8 -14 -8 -5 0 -37 -16 -71 -36 -34 -20 -82 -48 -107 -62
-25 -14 -92 -53 -150 -87 -58 -35 -127 -75 -155 -89 -27 -15 -57 -31 -65 -36
-28 -18 -175 -103 -227 -132 l-52 -28 -65 36 c-36 20 -67 34 -68 32 -2 -1 -5
-536 -8 -1187 l-5 -1184 -155 -90 c-85 -49 -254 -147 -375 -216 -648 -374
-1621 -936 -1765 -1019 -487 -282 -663 -382 -671 -382 -5 0 -9 976 -9 2463 l0
2462 24 50 c28 59 70 100 146 142 58 32 510 293 960 553 146 84 321 185 390
225 69 40 199 115 290 167 91 52 208 120 260 150 52 30 417 241 810 468 393
227 801 462 905 522 356 206 390 226 620 358 127 73 271 156 320 185 94 55
819 473 940 542 39 22 183 105 320 185 138 80 282 163 320 185 39 22 145 83
237 136 92 54 170 97 175 97 4 0 7 -455 5 -1011 -1 -556 1 -1017 5 -1024 6
-10 49 11 178 87 94 56 171 102 173 103 1 1 2 491 2 1089 0 933 -2 1091 -15
1116 -40 78 -199 172 -299 178 -55 3 -68 -1 -131 -36z m-798 -9844 c-3 -8 -6
-5 -6 6 -1 11 2 17 5 13 3 -3 4 -12 1 -19z m6 -68 c-5 -19 -23 -29 -23 -12 0
7 20 32 26 32 1 0 0 -9 -3 -20z m-108 -100 c3 -5 -3 -10 -15 -10 -12 0 -18 5
-15 10 3 6 10 10 15 10 5 0 12 -4 15 -10z m-294 -167 c13 -15 12 -15 -8 -4
-24 12 -29 21 -14 21 5 0 15 -7 22 -17z m-1034 -609 c-3 -3 -12 -4 -19 -1 -8
3 -5 6 6 6 11 1 17 -2 13 -5z m-67 -34 c0 -5 -5 -10 -11 -10 -5 0 -7 5 -4 10
3 6 8 10 11 10 2 0 4 -4 4 -10z m-165 -90 c-3 -5 -13 -10 -21 -10 -8 0 -12 5
-9 10 3 6 13 10 21 10 8 0 12 -4 9 -10z"/>
<path d="M17750 16700 c0 -7 335 -10 986 -10 654 0 983 3 979 10 -4 7 -343 10
-986 10 -646 0 -979 -3 -979 -10z"/>
<path d="M17750 16500 c0 -6 105 -10 295 -10 190 0 295 4 295 10 0 6 -105 10
-295 10 -190 0 -295 -4 -295 -10z"/>
<path d="M18535 16500 l-90 -5 115 -7 c177 -12 1148 -10 1155 2 4 7 -69 10
-212 10 -120 0 -366 1 -548 3 -181 1 -370 0 -420 -3z"/>
<path d="M17750 16260 c0 -7 193 -10 560 -10 367 0 560 3 560 10 0 7 -193 10
-560 10 -367 0 -560 -3 -560 -10z"/>
<path d="M18965 16260 c-4 -7 123 -10 375 -10 252 0 379 3 375 10 -4 6 -140
10 -375 10 -235 0 -371 -4 -375 -10z"/>
<path d="M17750 16030 c0 -7 174 -10 501 -10 331 0 498 3 494 10 -4 6 -182 10
-501 10 -323 0 -494 -3 -494 -10z"/>
<path d="M24590 15819 c-185 -105 -182 -103 -495 -284 -159 -92 -438 -253
-620 -358 -310 -178 -630 -364 -860 -497 -55 -32 -287 -166 -515 -298 -228
-131 -811 -467 -1295 -747 -1119 -646 -1551 -895 -1745 -1006 -249 -143 -272
-180 -268 -421 l3 -146 95 55 c236 137 859 498 900 521 25 14 173 99 330 190
157 90 357 206 445 257 88 50 264 152 390 225 241 140 718 414 795 457 25 14
50 29 55 33 6 4 100 59 210 122 285 164 500 288 820 473 348 202 867 501 914
527 20 11 77 44 126 73 132 77 459 266 620 358 77 44 177 102 223 129 l83 50
-3 164 c-3 149 -5 164 -23 178 -11 9 -29 16 -40 16 -11 0 -77 -32 -145 -71z
m-25 -202 c15 -59 -66 -150 -103 -114 -34 35 19 137 72 137 18 0 27 -7 31 -23z
m-205 -138 c0 -52 -58 -117 -93 -103 -25 9 -28 46 -7 90 34 70 100 78 100 13z
m-224 -77 c12 -7 17 -31 15 -65 0 -11 -17 -35 -36 -54 -30 -30 -37 -33 -56
-23 -32 18 -21 85 21 123 32 29 38 31 56 19z"/>
<path d="M24555 15226 l-90 -54 -5 -106 c-3 -58 -3 -106 0 -106 3 0 52 29 110
63 118 71 123 80 118 190 -4 81 -16 82 -133 13z m68 -51 c5 -16 13 -38 18 -47
13 -25 11 -38 -6 -38 -8 0 -25 -11 -39 -25 -27 -27 -55 -32 -74 -13 -24 24 -9
131 21 150 7 5 25 7 42 6 23 -2 32 -9 38 -33z"/>
<path d="M24562 15148 c-7 -7 -12 -23 -12 -37 0 -22 2 -23 14 -11 31 33 29 79
-2 48z"/>
<path d="M28850 13851 c0 -5 -15 -14 -33 -20 -18 -6 -69 -34 -112 -61 -44 -28
-84 -50 -89 -50 -5 0 -17 -6 -25 -14 -9 -7 -47 -31 -86 -52 -38 -21 -90 -50
-114 -66 -25 -15 -51 -28 -58 -28 -7 0 -13 -4 -13 -10 0 -5 -7 -10 -15 -10
-13 0 -15 -134 -15 -1145 l0 -1145 48 -30 c87 -54 93 -60 86 -83 -4 -12 -8
-30 -8 -39 0 -10 -4 -18 -9 -18 -5 0 -15 -7 -23 -15 -9 -8 -23 -15 -32 -15
-18 1 -14 6 35 37 16 11 16 12 1 12 -21 1 -66 -40 -61 -56 6 -17 -18 -28 -28
-12 -5 8 -8 -148 -6 -375 l2 -390 50 -29 c61 -37 277 -161 402 -233 l92 -52 6
27 c3 14 16 31 28 37 76 38 96 50 127 74 37 28 69 44 83 41 4 0 20 10 35 25
36 34 80 57 98 50 8 -3 14 1 14 9 0 7 9 16 20 20 30 10 61 54 54 80 -7 27 33
57 79 59 21 1 32 8 38 23 10 27 58 53 99 53 23 0 30 4 30 20 0 17 7 20 45 20
25 0 45 -4 45 -10 0 -5 7 -10 15 -10 8 0 15 3 15 8 0 4 15 13 33 20 17 7 39
18 47 23 8 5 27 17 42 27 21 13 28 26 30 57 3 40 3 40 128 112 163 95 164 95
330 -1 l125 -72 3 -53 c2 -29 -2 -58 -8 -65 -5 -7 -64 -44 -130 -81 l-120 -69
28 -18 c15 -11 44 -28 64 -38 l37 -20 3 36 c3 35 8 39 123 106 152 90 178 94
271 44 38 -20 71 -33 75 -28 7 8 81 304 77 308 -2 1 -37 -18 -78 -42 -106 -62
-126 -60 -268 20 -149 84 -148 83 -144 148 l4 53 123 73 c161 94 172 94 310
13 55 -33 103 -56 107 -53 3 4 14 34 23 67 24 92 27 107 15 100 -5 -3 -7 0 -4
8 3 8 -2 17 -10 20 -11 4 -16 0 -17 -11 -1 -9 -6 0 -11 21 -12 46 -7 53 67 92
32 16 61 39 65 50 5 12 31 42 59 67 51 46 151 91 231 104 22 4 40 10 40 14 0
7 -66 47 -340 203 -58 33 -211 122 -340 197 -129 76 -253 148 -275 160 -22 12
-114 65 -205 118 -91 52 -196 113 -235 136 -38 22 -100 70 -136 106 -71 72
-82 90 -358 568 -33 56 -51 77 -83 93 -75 38 -58 46 -537 -230 -106 -61 -197
-111 -202 -111 -13 0 -11 25 5 89 40 152 55 219 58 251 1 19 5 37 9 40 3 3 9
19 13 35 4 19 3 25 -2 17 -7 -11 -11 -9 -15 8 -4 15 -2 20 7 17 13 -5 17 5 61
198 14 61 31 135 39 165 33 130 37 153 26 164 -14 14 -12 26 4 20 9 -3 15 6
19 28 4 18 9 43 13 56 4 13 2 22 -5 22 -6 0 -11 -4 -11 -9z m-57 -265 c9 5 9
4 0 -6 -13 -15 -37 -4 -26 13 5 8 8 8 11 -1 2 -7 9 -9 15 -6z m-106 -438 c-3
-8 -6 -5 -6 6 -1 11 2 17 5 13 3 -3 4 -12 1 -19z m582 -333 c19 -9 57 -60 114
-152 105 -172 107 -176 107 -210 0 -55 -31 -85 -181 -170 -154 -87 -358 -204
-628 -360 -244 -142 -284 -164 -287 -161 -1 2 9 50 22 107 14 58 22 111 20
118 -3 8 -2 12 3 9 5 -3 18 43 31 102 12 59 36 165 53 236 l32 129 120 70
c151 88 462 266 495 284 33 17 64 16 99 -2z m-733 -383 c-11 -10 -15 4 -8 28
l7 25 3 -23 c2 -13 1 -26 -2 -30z m1351 -308 c91 -48 104 -61 97 -93 -11 -53
-13 -54 -30 -40 -10 8 -18 9 -22 3 -4 -6 -23 -18 -42 -28 -82 -41 -84 -43 -64
-54 15 -9 13 -12 -17 -26 -22 -11 -28 -12 -16 -3 9 8 17 17 17 21 0 13 -27 5
-46 -13 -11 -10 -30 -24 -42 -30 -13 -7 -19 -17 -16 -23 14 -22 -54 1 -118 40
l-63 39 0 48 0 48 130 73 c72 41 138 74 147 74 9 0 47 -16 85 -36z m63 -152
c0 -13 -39 -32 -45 -22 -3 6 1 10 9 10 9 0 16 5 16 10 0 6 5 10 10 10 6 0 10
-3 10 -8z m-1530 -33 c0 -5 -4 -9 -10 -9 -5 0 -10 7 -10 16 0 8 5 12 10 9 6
-3 10 -10 10 -16z m1900 -67 c190 -108 206 -123 152 -147 -12 -5 -22 -13 -22
-17 0 -5 -4 -8 -9 -8 -5 0 -49 -23 -98 -51 -115 -68 -162 -74 -217 -30 -21 17
-43 31 -48 31 -18 0 -129 73 -138 91 -11 20 -10 22 90 81 120 72 164 94 195
97 6 1 48 -21 95 -47z m-925 -65 c53 -33 69 -48 67 -62 -2 -11 -3 -30 -3 -42
1 -25 -9 -29 -26 -12 -13 13 -36 3 -28 -12 3 -5 -1 -6 -9 -3 -9 4 -18 -1 -22
-10 -3 -9 -13 -16 -21 -16 -8 0 -32 -10 -53 -22 -38 -22 -51 -38 -30 -38 6 0
10 -4 10 -9 0 -4 -24 -6 -52 -5 -47 4 -50 3 -25 -7 36 -14 34 -25 -7 -33 -38
-7 -51 -3 -121 39 -71 42 -77 49 -73 96 l3 42 130 74 c151 86 152 86 260 20z
m-1035 -142 c0 -8 -4 -16 -9 -19 -5 -3 -8 5 -7 18 1 25 16 26 16 1z m2390 -43
c30 -15 74 -40 97 -55 24 -15 46 -27 51 -27 16 0 72 -55 65 -65 -24 -31 -256
-155 -291 -155 -12 0 -59 21 -103 46 -59 34 -83 44 -89 35 -5 -9 -9 -6 -13 8
-3 11 -16 25 -30 30 -26 10 -39 33 -31 54 2 7 32 28 65 47 161 92 195 110 209
110 8 0 40 -13 70 -28z m-1390 8 c0 -5 -5 -10 -12 -10 -6 0 -20 -7 -30 -17
-10 -9 -18 -12 -18 -7 0 5 12 17 28 26 32 21 32 21 32 8z m500 -72 c69 -39
128 -77 133 -82 5 -8 4 -86 -3 -113 0 -1 -60 -36 -132 -77 -109 -61 -139 -74
-167 -70 -34 4 -236 114 -272 147 -16 15 -19 29 -17 69 l3 51 95 55 c205 118
191 117 360 20z m-1004 -38 c39 -21 75 -45 81 -52 15 -18 4 -71 -13 -64 -7 3
-16 1 -19 -4 -4 -6 1 -10 9 -10 9 0 16 -4 16 -10 0 -5 -6 -10 -14 -10 -8 0
-16 -6 -19 -12 -4 -10 -7 -10 -18 0 -9 9 -10 12 -1 12 7 0 12 4 12 9 0 11
-100 -39 -145 -73 -16 -12 -38 -26 -48 -29 -11 -4 -21 -16 -24 -27 -8 -30 -33
-25 -115 23 -72 43 -73 44 -76 88 l-3 44 78 47 c131 78 187 107 208 108 11 0
52 -18 91 -40z m1474 -233 l125 -72 3 -61 c3 -57 1 -61 -25 -74 -15 -8 -50
-29 -78 -46 -90 -56 -154 -84 -192 -84 -29 0 -68 17 -163 73 l-125 72 -3 56
c-2 37 2 59 10 66 7 6 65 41 128 77 154 87 159 87 320 -7z m-1470 48 c0 -2
-16 -11 -35 -20 -44 -22 -71 -14 -30 8 28 15 65 22 65 12z m480 -77 c69 -39
128 -76 132 -82 4 -6 8 -32 8 -58 0 -54 2 -52 -155 -143 -136 -79 -149 -78
-302 10 -65 37 -121 70 -125 74 -10 9 -18 104 -10 117 4 6 63 43 132 82 89 51
135 72 160 72 25 0 70 -20 160 -72z m1272 60 c-9 -9 -15 -9 -24 0 -9 9 -7 12
12 12 19 0 21 -3 12 -12z m-1847 -38 c-3 -5 -10 -10 -16 -10 -5 0 -9 5 -9 10
0 6 7 10 16 10 8 0 12 -4 9 -10z m938 -233 c12 -8 68 -40 125 -72 56 -31 106
-63 110 -70 4 -8 5 -36 4 -63 l-4 -49 -131 -77 c-113 -66 -137 -76 -166 -72
-38 6 -258 128 -278 154 -7 9 -13 38 -13 64 0 44 3 51 31 66 17 9 74 43 127
74 103 61 150 72 195 45z m-885 -87 c141 -82 142 -83 142 -141 0 -56 6 -50
-154 -145 -72 -42 -121 -64 -141 -64 -21 0 -76 25 -161 74 l-129 74 0 63 0 63
85 49 c164 95 173 98 213 93 21 -2 84 -31 145 -66z m416 -241 c39 -23 91 -53
116 -66 68 -38 77 -51 70 -113 l-5 -52 -119 -69 c-158 -92 -176 -93 -317 -9
-55 33 -103 60 -107 60 -3 0 -14 7 -24 17 -25 22 -25 104 0 126 16 14 64 43
197 118 69 40 104 37 189 -12z"/>
<path d="M31488 13773 c-32 -20 -48 -52 -55 -115 l-6 -48 -66 -1 c-81 0 -145
-29 -178 -78 -45 -66 -42 -113 9 -164 29 -30 30 -32 14 -58 -24 -41 -21 -95 9
-124 18 -19 35 -25 70 -25 43 0 45 -1 39 -24 -7 -28 7 -59 44 -98 21 -23 34
-28 71 -28 l46 0 -3 -53 c-3 -46 0 -58 23 -86 30 -35 74 -61 104 -61 14 0 21
-9 26 -31 4 -17 5 -32 3 -34 -1 -1 -64 6 -138 16 -74 10 -161 19 -192 19 -52
0 -58 2 -58 21 0 11 18 39 41 62 34 35 38 43 23 46 -30 6 -91 -69 -99 -120 -6
-45 12 -116 37 -144 7 -8 19 -21 26 -30 18 -22 31 -19 29 8 -1 12 -17 36 -35
54 -17 17 -32 41 -32 54 0 25 -5 25 230 -10 74 -11 138 -20 141 -21 3 0 4 -21
2 -47 -3 -39 0 -53 19 -75 13 -15 35 -30 51 -34 27 -6 27 -6 27 45 0 55 25
117 64 159 68 76 189 68 246 -16 21 -30 25 -48 25 -106 0 -61 -4 -79 -31 -126
-41 -72 -99 -114 -162 -116 -43 -2 -47 -4 -44 -26 22 -160 278 -312 503 -299
9 1 22 16 29 34 25 66 120 233 160 280 48 56 140 200 181 282 70 141 86 264
54 415 -27 130 -78 209 -159 246 -44 20 -55 30 -64 62 -31 101 -225 244 -392
287 -80 21 -199 16 -283 -11 l-59 -18 -51 56 c-29 31 -68 66 -87 77 -43 25
-114 27 -152 4z"/>
<path d="M26495 12060 l-100 -59 -3 -241 -2 -242 32 20 c18 11 67 39 108 62
41 23 78 47 82 53 10 16 7 77 -3 77 -5 0 -31 -13 -57 -30 -27 -16 -59 -31 -72
-32 -23 -3 -24 0 -21 42 1 25 6 46 9 48 4 1 35 20 70 42 59 38 62 41 62 80 0
22 -2 40 -5 40 -3 0 -29 -13 -58 -30 -30 -16 -59 -30 -65 -30 -7 0 -12 17 -12
45 l0 45 75 42 c75 43 75 43 75 86 0 23 -3 42 -7 41 -5 0 -53 -27 -108 -59z"/>
<path d="M26196 11893 c-44 -23 -85 -71 -114 -133 -24 -49 -27 -69 -30 -185
-3 -110 0 -135 15 -165 33 -65 115 -43 183 49 38 50 79 155 67 168 -15 15 -62
-26 -70 -61 -12 -49 -49 -86 -87 -86 -40 0 -50 27 -50 133 1 124 36 187 104
187 16 0 27 -7 31 -20 6 -18 7 -19 41 -2 33 15 35 19 30 52 -6 37 -46 80 -74
80 -9 -1 -30 -8 -46 -17z"/>
<path d="M34315 11849 c-19 -20 -62 -42 -130 -67 -39 -14 -164 -39 -241 -48
-32 -4 -65 -11 -72 -17 -10 -8 -12 -121 -13 -521 0 -281 -2 -522 -3 -536 -2
-14 -9 -24 -15 -22 -8 1 -7 -4 1 -18 13 -21 28 -27 28 -11 0 5 -6 12 -12 15
-7 3 -3 3 8 1 16 -4 37 9 83 53 33 32 64 56 67 53 4 -3 3 5 0 19 -6 19 -5 21
3 10 9 -13 15 -10 38 15 16 16 27 33 26 37 -2 5 1 7 6 5 4 -1 41 27 80 62 55
48 69 66 59 73 -9 7 -8 8 6 4 14 -5 31 5 62 35 l43 43 0 418 c0 230 -1 418 -2
417 -1 0 -11 -9 -22 -20z"/>
<path d="M33264 11645 c0 -115 2 -161 3 -102 2 59 2 154 0 210 -1 56 -3 8 -3
-108z"/>
<path d="M33295 11810 c3 -5 8 -10 11 -10 2 0 4 5 4 10 0 6 -5 10 -11 10 -5 0
-7 -4 -4 -10z"/>
<path d="M33322 11792 c-9 -6 -6 -12 12 -20 24 -11 47 0 32 15 -3 4 -6 1 -6
-5 0 -6 -7 -9 -15 -6 -8 4 -12 10 -9 15 6 11 3 11 -14 1z"/>
<path d="M25926 11729 l-26 -20 0 -235 c0 -129 3 -234 6 -234 3 0 19 8 35 17
l29 17 0 238 c0 131 -4 238 -9 238 -4 0 -20 -9 -35 -21z"/>
<path d="M33580 11736 c0 -2 11 -6 25 -8 13 -3 22 -1 19 3 -5 9 -44 13 -44 5z"/>
<path d="M33440 11720 c0 -5 5 -10 11 -10 5 0 7 5 4 10 -3 6 -8 10 -11 10 -2
0 -4 -4 -4 -10z"/>
<path d="M33500 11720 c0 -5 7 -10 16 -10 8 0 12 5 9 10 -3 6 -10 10 -16 10
-5 0 -9 -4 -9 -10z"/>
<path d="M33658 11723 c7 -3 16 -2 19 1 4 3 -2 6 -13 5 -11 0 -14 -3 -6 -6z"/>
<path d="M33720 11716 c0 -2 9 -6 20 -9 11 -3 20 -1 20 4 0 5 -9 9 -20 9 -11
0 -20 -2 -20 -4z"/>
<path d="M33598 11693 c7 -3 16 -2 19 1 4 3 -2 6 -13 5 -11 0 -14 -3 -6 -6z"/>
<path d="M27990 11668 c-34 -21 -72 -43 -257 -147 -51 -29 -96 -58 -100 -64
-7 -11 2 -7 242 133 171 99 173 100 159 100 -5 0 -25 -10 -44 -22z"/>
<path d="M33798 11683 c7 -3 16 -2 19 1 4 3 -2 6 -13 5 -11 0 -14 -3 -6 -6z"/>
<path d="M25733 11622 c-35 -5 -110 -79 -138 -135 -50 -103 -56 -327 -9 -378
49 -55 158 12 212 129 23 50 27 73 30 182 3 106 0 130 -15 159 -19 36 -43 49
-80 43z m11 -118 c12 -12 16 -38 16 -114 0 -54 -4 -110 -10 -124 -25 -66 -101
-91 -120 -40 -13 33 -13 159 0 206 11 37 60 88 85 88 7 0 21 -7 29 -16z"/>
<path d="M25479 11473 c-13 -9 -25 -17 -27 -18 -2 -2 -72 -353 -72 -362 0 -2
-4 -3 -9 -3 -5 0 -23 60 -41 133 -18 72 -34 133 -36 135 -1 2 -16 -4 -34 -13
-28 -14 -31 -20 -25 -48 10 -49 85 -360 90 -374 7 -19 70 14 84 43 15 35 105
513 97 521 -1 1 -13 -5 -27 -14z"/>
<path d="M33263 11385 c0 -22 2 -30 4 -17 2 12 2 30 0 40 -3 9 -5 -1 -4 -23z"/>
<path d="M27915 11319 c-55 -32 -141 -82 -192 -111 -51 -29 -90 -54 -88 -57 5
-4 372 203 390 220 23 22 -17 3 -110 -52z"/>
<path d="M33311 11344 c0 -11 3 -14 6 -6 3 7 2 16 -1 19 -3 4 -6 -2 -5 -13z"/>
<path d="M27275 11256 c-49 -29 -135 -78 -190 -110 -55 -32 -104 -63 -110 -69
-11 -11 115 56 155 83 14 9 71 42 127 74 56 31 105 61 108 66 8 13 11 15 -90
-44z"/>
<path d="M33320 11285 c-10 -13 -11 -18 -1 -28 10 -9 11 -8 5 7 -6 15 -4 18 9
13 11 -4 14 -2 10 9 -7 18 -8 18 -23 -1z"/>
<path d="M25128 11271 c-27 -16 -27 -17 -30 -141 -3 -103 -6 -125 -18 -125 -8
0 -25 18 -37 40 -12 22 -31 57 -42 77 -26 47 -34 51 -65 37 l-26 -12 0 -239
c0 -131 4 -238 9 -238 4 0 20 9 35 21 26 20 26 22 26 145 0 68 4 124 9 124 5
0 32 -40 62 -90 29 -49 56 -90 60 -90 4 0 17 9 30 19 24 19 24 21 26 250 1
126 -1 232 -5 234 -4 2 -19 -3 -34 -12z"/>
<path d="M33387 11180 c7 -8 20 -15 29 -16 9 -1 13 1 9 4 -4 4 -10 7 -13 7 -4
0 -14 4 -22 9 -12 7 -13 6 -3 -4z"/>
<path d="M33441 11124 c-1 -6 5 -17 12 -23 10 -8 14 -7 14 4 0 8 -4 12 -8 9
-4 -2 -10 2 -12 8 -4 8 -6 9 -6 2z"/>
<path d="M24788 11074 l-28 -15 0 -240 0 -240 30 16 30 16 0 239 c0 132 -1
240 -2 240 -2 -1 -15 -8 -30 -16z"/>
<path d="M27980 11051 c-25 -16 -114 -68 -198 -116 -84 -48 -151 -90 -148 -92
2 -3 74 35 158 84 84 50 172 100 196 113 23 13 42 27 42 32 0 10 3 11 -50 -21z"/>
<path d="M33490 11055 c13 -14 28 -25 33 -25 6 0 -2 11 -17 25 -15 14 -30 25
-33 25 -4 0 4 -11 17 -25z"/>
<path d="M33575 11020 c3 -5 8 -10 11 -10 2 0 4 5 4 10 0 6 -5 10 -11 10 -5 0
-7 -4 -4 -10z"/>
<path d="M33530 11011 c0 -5 5 -13 10 -16 6 -3 10 -2 10 4 0 5 -4 13 -10 16
-5 3 -10 2 -10 -4z"/>
<path d="M33597 11003 c-4 -3 -7 -11 -7 -17 0 -6 5 -5 12 2 6 6 9 14 7 17 -3
3 -9 2 -12 -2z"/>
<path d="M27240 10929 c-69 -40 -158 -90 -197 -113 -40 -22 -73 -44 -73 -48 0
-4 26 8 58 26 313 179 358 206 341 206 -2 0 -61 -32 -129 -71z"/>
<path d="M26660 10958 c-19 -11 -69 -40 -110 -63 -103 -58 -249 -148 -229
-142 9 3 94 51 190 106 95 56 178 103 184 105 5 2 8 6 5 9 -3 4 -21 -3 -40
-15z"/>
<path d="M33570 10961 c0 -6 4 -13 10 -16 6 -3 7 1 4 9 -7 18 -14 21 -14 7z"/>
<path d="M33625 10897 c15 -21 30 -35 32 -33 3 3 -9 20 -27 38 l-32 33 27 -38z"/>
<path d="M26505 10759 c-104 -61 -194 -115 -200 -121 -14 -15 32 10 165 87 63
37 131 76 150 87 37 20 89 58 80 58 -3 0 -90 -50 -195 -111z"/>
<path d="M33745 10789 c-4 -6 -5 -12 -2 -15 2 -3 7 2 10 11 7 17 1 20 -8 4z"/>
<path d="M27835 10660 c-104 -60 -194 -112 -200 -114 -5 -2 -8 -6 -5 -9 3 -2
37 13 75 35 39 22 88 50 110 63 143 80 231 136 213 135 -2 0 -88 -50 -193
-110z"/>
<path d="M33720 10763 c1 -12 100 -119 100 -107 0 5 -23 33 -50 62 -28 29 -50
49 -50 45z"/>
<path d="M33820 10741 c0 -6 5 -13 10 -16 6 -3 10 1 10 9 0 9 -4 16 -10 16 -5
0 -10 -4 -10 -9z"/>
<path d="M27300 10657 c-30 -18 -117 -68 -193 -112 -75 -43 -136 -80 -134 -82
4 -4 90 43 232 127 50 29 106 61 125 72 41 24 47 28 34 28 -5 0 -34 -15 -64
-33z"/>
<path d="M26585 10610 c-55 -33 -141 -83 -192 -112 -51 -29 -90 -54 -88 -57 3
-2 58 27 122 64 65 37 136 78 158 90 62 34 115 67 115 71 0 9 -20 -1 -115 -56z"/>
<path d="M26600 10508 c-47 -27 -109 -63 -137 -79 -92 -51 -168 -99 -159 -99
4 0 43 20 85 44 42 24 129 74 194 110 64 37 117 69 117 72 0 9 -19 0 -100 -48z"/>
<path d="M27823 10347 c-106 -61 -191 -113 -188 -115 4 -5 23 6 225 123 147
85 180 105 165 104 -6 0 -97 -51 -202 -112z"/>
<path d="M25645 10323 c-72 -42 -182 -105 -245 -141 -63 -35 -127 -73 -142
-83 -14 -11 -28 -19 -31 -19 -10 0 -372 -211 -387 -226 -12 -12 -12 -14 3 -14
17 0 125 57 227 121 25 15 191 111 370 214 179 102 331 192 338 199 8 8 10 16
5 19 -5 3 -67 -28 -138 -70z"/>
<path d="M27235 10313 c-212 -123 -265 -155 -265 -160 0 -3 21 7 48 22 26 15
72 41 102 58 30 16 66 38 80 47 14 9 55 33 92 54 37 20 70 41 73 46 9 14 12
16 -130 -67z"/>
<path d="M34311 10353 c-10 -21 -9 -28 1 -36 10 -7 9 -8 -3 -4 -13 4 -34 -21
-84 -95 -81 -122 -171 -233 -222 -273 -35 -27 -45 -30 -110 -29 -39 0 -70 -3
-67 -7 3 -5 11 -6 19 -2 8 3 15 1 15 -5 0 -6 -6 -13 -12 -15 -10 -4 -10 -6 0
-6 14 -1 15 -416 5 -2499 l-6 -1381 -66 -4 c-36 -2 -12 -3 54 -1 194 4 372 66
447 153 l35 41 6 742 c4 409 7 1339 7 2068 1 729 2 1337 4 1353 4 34 -7 35
-23 0z"/>
<path d="M26605 10314 c-49 -29 -139 -81 -198 -115 -59 -34 -106 -63 -104 -65
4 -4 85 40 292 161 103 60 126 76 110 74 -6 -1 -50 -25 -100 -55z"/>
<path d="M26685 10250 c-3 -5 -1 -10 4 -10 6 0 11 5 11 10 0 6 -2 10 -4 10 -3
0 -8 -4 -11 -10z"/>
<path d="M33264 10025 c0 -126 2 -177 3 -112 2 65 2 168 0 230 -1 62 -3 9 -3
-118z"/>
<path d="M33304 10238 c10 -6 22 -6 26 -2 5 5 -3 10 -18 11 -22 1 -24 0 -8 -9z"/>
<path d="M26630 10218 c-42 -26 -204 -119 -278 -161 -29 -16 -51 -31 -48 -34
3 -3 39 16 81 41 42 25 78 46 80 46 2 0 45 25 96 55 50 30 95 55 100 55 5 0 9
5 9 10 0 13 0 13 -40 -12z"/>
<path d="M33434 10181 c7 -11 46 -35 46 -28 0 3 -12 12 -26 22 -15 9 -23 12
-20 6z"/>
<path d="M30672 10139 l-53 -30 23 -17 c48 -35 68 -43 73 -30 7 24 25 93 25
101 0 12 -13 8 -68 -24z"/>
<path d="M33520 10110 c0 -5 10 -15 23 -21 22 -12 22 -12 3 10 -21 23 -26 26
-26 11z"/>
<path d="M33485 10090 c-3 -6 1 -7 9 -4 18 7 21 14 7 14 -6 0 -13 -4 -16 -10z"/>
<path d="M27170 9969 c-213 -122 -205 -117 -199 -124 3 -2 33 14 67 35 35 22
65 40 67 40 6 0 249 141 260 151 20 19 -7 5 -195 -102z"/>
<path d="M33570 10073 c0 -5 14 -19 30 -31 17 -13 30 -19 29 -15 0 11 -59 56
-59 46z"/>
<path d="M26506 9950 c-104 -60 -194 -115 -200 -121 -13 -14 17 1 94 46 30 18
105 61 165 96 127 73 153 89 140 88 -6 0 -95 -49 -199 -109z"/>
<path d="M33565 10030 c3 -5 11 -10 16 -10 6 0 7 5 4 10 -3 6 -11 10 -16 10
-6 0 -7 -4 -4 -10z"/>
<path d="M33670 9995 c7 -8 17 -15 22 -15 5 0 3 7 -6 15 -8 8 -18 15 -22 15
-3 0 -1 -7 6 -15z"/>
<path d="M27995 9986 c-11 -7 -96 -57 -190 -111 -183 -104 -180 -103 -174
-109 2 -2 33 13 69 35 36 22 125 74 198 115 72 42 132 78 132 80 0 8 -16 4
-35 -10z"/>
<path d="M33731 9946 c-10 -12 -5 -14 26 -13 21 0 30 2 21 4 -10 3 -18 9 -18
14 0 14 -16 11 -29 -5z"/>
<path d="M26615 9904 c-44 -25 -87 -49 -95 -54 -8 -5 -59 -34 -112 -66 -94
-54 -118 -71 -80 -57 17 7 373 211 381 219 16 15 -26 -3 -94 -42z"/>
<path d="M25468 9916 c-20 -11 -74 -43 -120 -70 -45 -27 -92 -54 -103 -60 -95
-50 -415 -241 -415 -248 0 -4 5 -8 11 -8 12 0 162 84 409 229 80 46 173 100
208 120 34 19 62 41 62 48 0 17 -7 15 -52 -11z"/>
<path d="M33760 9890 c0 -5 5 -10 11 -10 5 0 7 5 4 10 -3 6 -8 10 -11 10 -2 0
-4 -4 -4 -10z"/>
<path d="M28819 9869 c-17 -10 -9 -18 51 -51 25 -14 68 -39 96 -56 28 -18 54
-32 58 -32 3 0 27 -15 53 -33 105 -74 343 -195 343 -174 0 4 -89 57 -420 248
-74 42 -142 84 -151 92 -10 9 -22 11 -30 6z"/>
<path d="M25880 9847 c-14 -8 -106 -61 -205 -119 -99 -57 -261 -151 -360 -208
-99 -57 -227 -131 -285 -165 -58 -34 -127 -74 -153 -89 -33 -19 -46 -31 -39
-38 9 -9 33 3 347 187 129 75 289 167 527 302 114 65 207 124 208 131 0 15 -9
15 -40 -1z"/>
<path d="M27825 9734 c-110 -64 -189 -113 -177 -109 39 11 406 227 382 225 -3
-1 -95 -53 -205 -116z"/>
<path d="M33325 9400 c0 -201 1 -283 2 -182 2 100 2 264 0 365 -1 100 -2 18
-2 -183z"/>
<path d="M26600 9698 c-47 -27 -128 -75 -180 -105 -52 -30 -99 -60 -105 -65
-12 -13 77 36 182 99 40 23 75 43 77 43 3 0 34 18 68 40 91 57 59 49 -42 -12z"/>
<path d="M26503 9532 c-111 -64 -200 -118 -198 -120 2 -2 38 16 80 39 42 24
90 52 107 61 17 9 56 33 88 52 32 20 62 36 67 36 4 0 22 11 38 25 17 13 28 24
25 24 -3 0 -96 -53 -207 -117z"/>
<path d="M27343 9607 c-37 -20 -233 -132 -305 -173 -37 -22 -68 -42 -68 -46 0
-6 377 207 395 223 13 12 4 11 -22 -4z"/>
<path d="M27320 9443 c-25 -14 -65 -37 -90 -53 -25 -15 -91 -53 -148 -85 -56
-31 -105 -62 -109 -68 -4 -6 9 -2 28 10 19 11 108 62 199 114 189 107 175 98
169 103 -2 2 -24 -7 -49 -21z"/>
<path d="M25320 9216 c-30 -18 -147 -86 -260 -151 -210 -120 -238 -139 -223
-148 4 -3 78 35 163 84 85 50 203 117 262 151 59 33 112 66 118 73 22 27 -7
22 -60 -9z"/>
<path d="M30188 9243 c-16 -2 -28 -8 -28 -13 0 -11 -93 -60 -112 -60 -8 0 -30
12 -51 26 -21 14 -48 24 -60 22 -17 -3 -7 -12 47 -42 l69 -39 56 28 c31 16 76
42 100 57 44 27 41 30 -21 21z"/>
<path d="M25745 9156 c-18 -11 -135 -80 -448 -260 -49 -28 -96 -55 -105 -61
-10 -5 -95 -55 -190 -110 -104 -60 -168 -103 -163 -108 10 -10 22 -4 196 98
55 32 129 75 165 95 36 21 108 62 160 92 52 30 168 97 257 149 90 52 163 98
164 104 1 15 -15 16 -36 1z"/>
<path d="M33255 8600 c0 -245 1 -345 2 -222 2 122 2 322 0 445 -1 122 -2 22
-2 -223z"/>
<path d="M32925 8917 c-125 -119 -368 -216 -645 -258 -116 -18 -166 -20 -355
-16 -310 8 -461 32 -723 118 -68 22 -125 39 -127 37 -11 -11 -27 -1205 -22
-1743 5 -715 8 -753 96 -1355 22 -152 49 -343 60 -425 61 -453 210 -1424 222
-1447 15 -28 78 -43 179 -43 108 0 192 23 214 58 14 23 21 120 56 757 52 968
52 1141 4 1605 l-17 160 27 217 c15 119 33 277 41 350 7 73 25 223 39 333 14
110 37 297 51 415 39 317 44 316 75 -15 11 -121 27 -285 35 -365 17 -177 30
-328 50 -620 6 -79 8 -102 25 -270 16 -157 116 -949 156 -1240 20 -140 38
-285 41 -321 l5 -66 -33 -1 c-18 0 -64 -11 -101 -23 -84 -27 -157 -93 -183
-166 -32 -90 -38 -94 -74 -42 -19 28 -22 30 -16 9 22 -76 42 -100 208 -252 44
-41 104 -111 139 -162 71 -104 149 -191 191 -213 45 -23 163 -20 219 5 59 26
75 51 83 130 7 68 -11 292 -24 305 -5 5 -24 -1 -43 -11 -77 -43 -172 -49 -265
-16 -41 15 -41 15 -53 85 -7 39 -10 73 -7 75 3 3 33 0 68 -6 103 -19 242 13
266 61 11 22 72 466 107 789 77 687 90 936 62 1160 -18 137 -52 299 -80 378
-14 38 -14 69 -1 295 24 403 35 571 51 752 46 520 64 899 47 980 l-8 40 -40
-38z m-498 -4203 c2 -28 -2 -34 -32 -48 -33 -16 -95 -81 -95 -100 0 -14 -33
-35 -55 -36 -26 0 -45 18 -45 43 0 27 57 102 99 131 80 55 124 58 128 10z m7
-80 c30 -77 -47 -193 -103 -157 -21 14 -16 62 10 89 10 11 19 24 19 28 0 10
51 56 61 56 4 0 10 -7 13 -16z"/>
<path d="M25668 8853 c7 -3 16 -2 19 1 4 3 -2 6 -13 5 -11 0 -14 -3 -6 -6z"/>
<path d="M25585 8288 c-28 -17 -68 -41 -90 -54 -22 -12 -123 -70 -225 -129
-102 -59 -240 -139 -308 -177 -67 -39 -120 -73 -118 -75 3 -3 31 11 63 30 32
19 78 46 103 60 25 13 124 71 220 127 96 56 191 111 210 122 48 26 161 90 185
105 11 6 18 14 15 17 -3 2 -28 -9 -55 -26z"/>
<path d="M25601 8144 c-13 -10 -53 -33 -90 -54 -145 -80 -647 -373 -656 -382
-15 -15 26 6 155 82 63 37 212 122 330 190 243 139 310 180 295 180 -6 0 -21
-7 -34 -16z"/>
<path d="M25615 8001 c-6 -5 -98 -60 -205 -122 -107 -62 -249 -143 -315 -182
-66 -38 -140 -81 -165 -95 -25 -14 -54 -32 -65 -40 -17 -12 -17 -13 -2 -8 17
5 482 273 557 321 19 12 74 43 122 69 81 44 111 66 91 66 -5 0 -13 -4 -18 -9z"/>
<path d="M33245 6920 c0 -201 1 -283 2 -182 2 100 2 264 0 365 -1 100 -2 18
-2 -183z"/>
<path d="M33242 6364 c-2 -94 1 -124 12 -133 10 -8 16 -9 21 -1 3 5 -1 10 -9
10 -13 0 -16 21 -19 123 l-3 122 -2 -121z"/>
<path d="M18128 6233 c7 -3 16 -2 19 1 4 3 -2 6 -13 5 -11 0 -14 -3 -6 -6z"/>
<path d="M18248 6233 c6 -2 18 -2 25 0 6 3 1 5 -13 5 -14 0 -19 -2 -12 -5z"/>
<path d="M33368 6153 c7 -3 16 -2 19 1 4 3 -2 6 -13 5 -11 0 -14 -3 -6 -6z"/>
<path d="M33388 6133 c7 -3 16 -2 19 1 4 3 -2 6 -13 5 -11 0 -14 -3 -6 -6z"/>
<path d="M33366 6106 c10 -8 21 -12 24 -10 5 6 -21 24 -34 24 -6 0 -1 -6 10
-14z"/>
<path d="M33420 6110 c0 -5 9 -10 21 -10 11 0 17 5 14 10 -3 6 -13 10 -21 10
-8 0 -14 -4 -14 -10z"/>
<path d="M18320 6051 c-122 -18 -278 -70 -345 -114 -130 -86 -180 -200 -135
-304 74 -172 354 -283 680 -270 226 10 399 66 513 167 208 187 58 424 -321
506 -80 17 -315 26 -392 15z m-91 -112 c32 -19 36 -19 95 -5 89 23 206 18 206
-8 0 -7 -17 -28 -37 -48 -34 -33 -43 -37 -88 -36 -81 2 -147 -45 -97 -70 22
-11 57 -7 112 13 82 30 154 44 223 45 75 0 116 -13 165 -54 28 -24 32 -34 32
-76 0 -30 -5 -52 -15 -60 -13 -11 -12 -15 9 -35 23 -21 24 -24 8 -38 -9 -8
-32 -22 -51 -32 -33 -16 -35 -16 -72 4 -31 18 -42 19 -66 10 -53 -20 -133 -28
-186 -18 -75 14 -78 22 -27 75 42 42 48 45 85 39 48 -7 119 15 123 38 2 10 -7
21 -21 28 -21 9 -42 6 -124 -21 -127 -41 -223 -49 -293 -24 -92 33 -124 102
-79 165 l20 29 -30 18 c-17 9 -31 19 -31 22 0 5 91 59 100 60 3 0 20 -9 39
-21z"/>
<path d="M33598 6043 c6 -2 18 -2 25 0 6 3 1 5 -13 5 -14 0 -19 -2 -12 -5z"/>
<path d="M33538 6033 c6 -2 18 -2 25 0 6 3 1 5 -13 5 -14 0 -19 -2 -12 -5z"/>
<path d="M28490 5796 c0 -2 7 -7 16 -10 8 -3 12 -2 9 4 -6 10 -25 14 -25 6z"/>
<path d="M28570 5756 c0 -3 9 -10 20 -16 11 -6 20 -8 20 -6 0 3 -9 10 -20 16
-11 6 -20 8 -20 6z"/>
<path d="M28317 5719 c7 -7 15 -10 18 -7 3 3 -2 9 -12 12 -14 6 -15 5 -6 -5z"/>
<path d="M28740 5656 c0 -3 9 -10 20 -16 11 -6 20 -8 20 -6 0 3 -9 10 -20 16
-11 6 -20 8 -20 6z"/>
<path d="M17490 5560 c0 -95 24 -191 58 -239 22 -30 31 -56 35 -103 16 -156
135 -300 329 -399 157 -79 351 -128 549 -136 l117 -5 0 86 0 86 -33 0 c-68 0
-283 32 -375 56 -143 37 -332 125 -388 181 -8 8 -26 21 -39 30 -13 9 -21 18
-19 21 3 2 16 -3 30 -11 59 -39 98 -56 206 -89 63 -20 151 -43 195 -52 154
-32 358 -39 336 -12 -14 17 -17 104 -4 117 24 24 -14 37 -143 49 -197 17 -435
83 -544 151 -8 5 -31 18 -50 28 -19 11 -48 32 -65 46 -16 15 -42 37 -56 49
-37 32 -119 145 -119 165 0 9 -5 23 -10 31 -7 11 -10 -4 -10 -50z"/>
<path d="M28887 5569 c7 -7 15 -10 18 -7 3 3 -2 9 -12 12 -14 6 -15 5 -6 -5z"/>
<path d="M29007 5499 c7 -7 15 -10 18 -7 3 3 -2 9 -12 12 -14 6 -15 5 -6 -5z"/>
<path d="M27900 5426 c0 -3 14 -12 30 -21 17 -9 30 -13 30 -11 0 3 -13 12 -30
21 -16 9 -30 13 -30 11z"/>
<path d="M29200 5386 c0 -2 7 -7 16 -10 8 -3 12 -2 9 4 -6 10 -25 14 -25 6z"/>
<path d="M29270 5346 c0 -2 7 -7 16 -10 8 -3 12 -2 9 4 -6 10 -25 14 -25 6z"/>
<path d="M27275 5250 c7 -11 65 -43 65 -36 0 2 -16 13 -36 25 -19 12 -32 16
-29 11z"/>
<path d="M29160 5236 c0 -3 9 -10 20 -16 11 -6 20 -8 20 -6 0 3 -9 10 -20 16
-11 6 -20 8 -20 6z"/>
<path d="M26737 5199 c7 -7 15 -10 18 -7 3 3 -2 9 -12 12 -14 6 -15 5 -6 -5z"/>
<path d="M27427 5159 c7 -7 15 -10 18 -7 3 3 -2 9 -12 12 -14 6 -15 5 -6 -5z"/>
<path d="M18765 5155 c-5 -2 -22 -6 -37 -9 -16 -4 -28 -11 -28 -16 0 -7 6 -7
18 -1 9 5 33 14 52 19 19 6 28 10 20 10 -8 0 -19 -1 -25 -3z"/>
<path d="M18870 5140 c-9 -6 -10 -10 -3 -10 6 0 15 5 18 10 8 12 4 12 -15 0z"/>
<path d="M18518 5123 c17 -2 47 -2 65 0 17 2 3 4 -33 4 -36 0 -50 -2 -32 -4z"/>
<path d="M17443 5000 c4 -92 8 -113 35 -174 26 -55 32 -82 32 -135 0 -143 83
-272 248 -383 80 -54 201 -108 287 -129 28 -6 59 -15 70 -19 33 -12 117 -29
170 -34 28 -3 73 -8 102 -12 28 -4 66 -4 85 0 31 6 33 9 36 49 1 23 0 61 -3
84 l-6 41 -107 7 c-253 17 -487 90 -657 206 -47 32 -165 146 -165 160 0 5 24
-9 53 -32 151 -121 503 -229 745 -229 l74 0 -3 53 c-4 93 -1 107 24 108 12 1
-43 7 -123 15 -80 7 -170 19 -200 25 -374 79 -627 248 -687 458 -13 44 -13 41
-10 -59z"/>
<path d="M18808 5093 c7 -3 16 -2 19 1 4 3 -2 6 -13 5 -11 0 -14 -3 -6 -6z"/>
<path d="M26687 5049 c7 -7 15 -10 18 -7 3 3 -2 9 -12 12 -14 6 -15 5 -6 -5z"/>
<path d="M28230 5056 c0 -3 9 -10 20 -16 11 -6 20 -8 20 -6 0 3 -9 10 -20 16
-11 6 -20 8 -20 6z"/>
<path d="M18490 5046 c0 -2 9 -6 20 -9 11 -3 20 -1 20 4 0 5 -9 9 -20 9 -11 0
-20 -2 -20 -4z"/>
<path d="M18905 5030 c-3 -5 1 -10 9 -10 9 0 16 5 16 10 0 6 -4 10 -9 10 -6 0
-13 -4 -16 -10z"/>
<path d="M27670 5027 c0 -3 12 -12 26 -22 15 -9 23 -12 20 -6 -7 11 -46 35
-46 28z"/>
<path d="M28907 5019 c7 -7 15 -10 18 -7 3 3 -2 9 -12 12 -14 6 -15 5 -6 -5z"/>
<path d="M33640 5026 c0 -2 5 -17 11 -33 6 -15 12 -35 15 -43 2 -8 19 -62 39
-120 62 -187 90 -185 157 12 25 73 49 141 53 150 6 15 3 15 -42 2 -71 -22
-135 -13 -225 34 -5 2 -8 1 -8 -2z"/>
<path d="M28021 4997 c2 -2 18 -11 34 -21 l30 -17 -24 20 c-13 12 -28 21 -34
21 -6 0 -8 -1 -6 -3z"/>
<path d="M26490 4986 c0 -2 7 -7 16 -10 8 -3 12 -2 9 4 -6 10 -25 14 -25 6z"/>
<path d="M28110 4946 c0 -3 9 -10 20 -16 11 -6 20 -8 20 -6 0 3 -9 10 -20 16
-11 6 -20 8 -20 6z"/>
<path d="M19055 4914 c-16 -8 -22 -12 -12 -9 10 3 30 5 43 5 14 0 22 4 19 10
-8 13 -14 12 -50 -6z"/>
<path d="M28160 4915 c0 -2 10 -10 23 -16 20 -11 21 -11 8 4 -13 16 -31 23
-31 12z"/>
<path d="M26945 4900 c3 -5 11 -10 16 -10 6 0 7 5 4 10 -3 6 -11 10 -16 10 -6
0 -7 -4 -4 -10z"/>
<path d="M29100 4906 c0 -2 7 -7 16 -10 8 -3 12 -2 9 4 -6 10 -25 14 -25 6z"/>
<path d="M18970 4889 c0 -5 5 -7 10 -4 6 3 10 8 10 11 0 2 -4 4 -10 4 -5 0
-10 -5 -10 -11z"/>
<path d="M26331 4896 c2 -2 15 -9 29 -15 24 -11 24 -11 6 3 -16 13 -49 24 -35
12z"/>
<path d="M26060 4876 c0 -2 7 -7 16 -10 8 -3 12 -2 9 4 -6 10 -25 14 -25 6z"/>
<path d="M27920 4876 c0 -2 7 -7 16 -10 8 -3 12 -2 9 4 -6 10 -25 14 -25 6z"/>
<path d="M18833 4863 c9 -2 25 -2 35 0 9 3 1 5 -18 5 -19 0 -27 -2 -17 -5z"/>
<path d="M18618 4843 c6 -2 18 -2 25 0 6 3 1 5 -13 5 -14 0 -19 -2 -12 -5z"/>
<path d="M18664 4812 c5 -8 76 -4 76 4 0 2 -18 4 -41 4 -22 0 -38 -4 -35 -8z"/>
<path d="M27770 4786 c0 -3 9 -10 20 -16 11 -6 20 -8 20 -6 0 3 -9 10 -20 16
-11 6 -20 8 -20 6z"/>
<path d="M19029 4749 c-6 -4 1 -6 15 -6 15 0 28 2 30 6 3 4 -4 7 -15 7 -11 0
-25 -3 -30 -7z"/>
<path d="M27875 4720 c3 -5 11 -10 16 -10 6 0 7 5 4 10 -3 6 -11 10 -16 10 -6
0 -7 -4 -4 -10z"/>
<path d="M18810 4710 c0 -5 7 -10 16 -10 8 0 12 5 9 10 -3 6 -10 10 -16 10 -5
0 -9 -4 -9 -10z"/>
<path d="M26657 4709 c7 -7 15 -10 18 -7 3 3 -2 9 -12 12 -14 6 -15 5 -6 -5z"/>
<path d="M18748 4693 c6 -2 18 -2 25 0 6 3 1 5 -13 5 -14 0 -19 -2 -12 -5z"/>
<path d="M27010 4686 c0 -3 9 -10 20 -16 11 -6 20 -8 20 -6 0 3 -9 10 -20 16
-11 6 -20 8 -20 6z"/>
<path d="M26450 4656 c0 -3 9 -10 20 -16 11 -6 20 -8 20 -6 0 3 -9 10 -20 16
-11 6 -20 8 -20 6z"/>
<path d="M18945 4640 c6 -10 1 -12 -19 -8 -14 3 -29 1 -32 -3 -3 -5 11 -9 30
-9 36 0 47 12 24 26 -7 5 -8 3 -3 -6z"/>
<path d="M26790 4636 c0 -3 9 -10 20 -16 11 -6 20 -8 20 -6 0 3 -9 10 -20 16
-11 6 -20 8 -20 6z"/>
<path d="M19885 4615 c-100 -16 -191 -46 -275 -92 -81 -43 -125 -84 -156 -145
-91 -179 73 -355 397 -424 112 -24 352 -24 461 0 269 58 427 190 416 346 -16
225 -432 380 -843 315z m-65 -85 c0 -5 12 -16 27 -23 22 -12 33 -12 71 -1 70
21 222 17 222 -6 0 -5 -7 -16 -16 -24 -8 -9 -12 -21 -8 -27 5 -8 3 -9 -5 -4
-7 4 -22 -2 -36 -15 -17 -16 -31 -20 -52 -16 -57 12 -146 -32 -122 -61 17 -20
82 -16 151 11 128 50 246 54 328 11 64 -33 89 -104 54 -153 -15 -22 -15 -25 7
-48 12 -13 21 -25 18 -27 -2 -2 -24 -16 -48 -30 l-44 -26 -38 20 c-29 14 -44
17 -63 9 -39 -14 -149 -23 -198 -16 -74 11 -76 18 -28 70 43 46 43 46 112 46
56 0 72 4 90 22 20 20 20 22 3 35 -25 17 -38 17 -115 -8 -163 -52 -214 -58
-295 -38 -24 6 -61 26 -82 44 -30 26 -37 39 -37 68 0 24 8 45 22 60 28 30 28
32 -8 47 -16 7 -30 16 -30 20 0 10 92 70 108 70 6 0 12 -4 12 -10z"/>
<path d="M27120 4626 c0 -3 9 -10 20 -16 11 -6 20 -8 20 -6 0 3 -9 10 -20 16
-11 6 -20 8 -20 6z"/>
<path d="M27730 4626 c0 -2 7 -7 16 -10 8 -3 12 -2 9 4 -6 10 -25 14 -25 6z"/>
<path d="M28397 4599 c7 -7 15 -10 18 -7 3 3 -2 9 -12 12 -14 6 -15 5 -6 -5z"/>
<path d="M18910 4584 c0 -8 5 -12 10 -9 6 4 8 11 5 16 -9 14 -15 11 -15 -7z"/>
<path d="M26260 4580 c8 -5 20 -10 25 -10 6 0 3 5 -5 10 -8 5 -19 10 -25 10
-5 0 -3 -5 5 -10z"/>
<path d="M18506 4572 c-3 -5 17 -9 45 -9 27 0 49 3 49 7 0 10 -88 11 -94 2z"/>
<path d="M28180 4546 c0 -2 7 -7 16 -10 8 -3 12 -2 9 4 -6 10 -25 14 -25 6z"/>
<path d="M26395 4500 c3 -5 11 -10 16 -10 6 0 7 5 4 10 -3 6 -11 10 -16 10 -6
0 -7 -4 -4 -10z"/>
<path d="M27940 4506 c0 -2 7 -7 16 -10 8 -3 12 -2 9 4 -6 10 -25 14 -25 6z"/>
<path d="M25520 4476 c0 -3 9 -10 20 -16 11 -6 20 -8 20 -6 0 3 -9 10 -20 16
-11 6 -20 8 -20 6z"/>
<path d="M27070 4476 c0 -3 9 -10 20 -16 11 -6 20 -8 20 -6 0 3 -9 10 -20 16
-11 6 -20 8 -20 6z"/>
<path d="M28322 4464 c10 -10 20 -16 22 -13 3 3 -5 11 -17 18 -21 13 -21 12
-5 -5z"/>
<path d="M25970 4396 c0 -3 9 -10 20 -16 11 -6 20 -8 20 -6 0 3 -9 10 -20 16
-11 6 -20 8 -20 6z"/>
<path d="M26317 4369 c7 -7 15 -10 18 -7 3 3 -2 9 -12 12 -14 6 -15 5 -6 -5z"/>
<path d="M25710 4360 c8 -5 20 -10 25 -10 6 0 3 5 -5 10 -8 5 -19 10 -25 10
-5 0 -3 -5 5 -10z"/>
<path d="M18980 4330 c12 -8 12 -10 1 -10 -8 0 -12 -2 -9 -5 3 -3 13 -3 22 1
19 7 11 24 -12 24 -15 0 -15 -2 -2 -10z"/>
<path d="M25774 4326 c11 -9 24 -16 30 -16 12 0 7 5 -24 19 -24 11 -24 11 -6
-3z"/>
<path d="M18825 4310 c-3 -5 -2 -10 4 -10 5 0 13 5 16 10 3 6 2 10 -4 10 -5 0
-13 -4 -16 -10z"/>
<path d="M26100 4316 c0 -2 7 -7 16 -10 8 -3 12 -2 9 4 -6 10 -25 14 -25 6z"/>
<path d="M18671 4291 c-10 -6 1 -8 30 -4 24 3 46 7 48 9 10 9 -65 3 -78 -5z"/>
<path d="M18610 4286 c0 -2 9 -6 20 -9 11 -3 18 -1 14 4 -5 9 -34 13 -34 5z"/>
<path d="M25540 4286 c0 -3 9 -10 20 -16 11 -6 20 -8 20 -6 0 3 -9 10 -20 16
-11 6 -20 8 -20 6z"/>
<path d="M25850 4286 c0 -3 9 -10 20 -16 11 -6 20 -8 20 -6 0 3 -9 10 -20 16
-11 6 -20 8 -20 6z"/>
<path d="M28027 4279 c7 -7 15 -10 18 -7 3 3 -2 9 -12 12 -14 6 -15 5 -6 -5z"/>
<path d="M18808 4273 c7 -3 16 -2 19 1 4 3 -2 6 -13 5 -11 0 -14 -3 -6 -6z"/>
<path d="M18688 4263 c7 -3 16 -2 19 1 4 3 -2 6 -13 5 -11 0 -14 -3 -6 -6z"/>
<path d="M18970 4200 c8 -5 20 -10 25 -10 6 0 3 5 -5 10 -8 5 -19 10 -25 10
-5 0 -3 -5 5 -10z"/>
<path d="M25360 4206 c0 -2 7 -7 16 -10 8 -3 12 -2 9 4 -6 10 -25 14 -25 6z"/>
<path d="M27530 4206 c0 -2 7 -7 16 -10 8 -3 12 -2 9 4 -6 10 -25 14 -25 6z"/>
<path d="M19087 4185 c-9 -23 1 -122 18 -183 74 -255 433 -446 880 -469 111
-6 119 -5 106 10 -9 12 -12 37 -9 85 l3 69 -120 12 c-157 16 -330 55 -434 97
-207 83 -375 224 -418 349 -16 50 -18 52 -26 30z"/>
<path d="M18915 4180 c-13 -5 -14 -9 -5 -9 8 0 24 4 35 9 13 5 14 9 5 9 -8 0
-24 -4 -35 -9z"/>
<path d="M25730 4176 c0 -3 9 -10 20 -16 11 -6 20 -8 20 -6 0 3 -9 10 -20 16
-11 6 -20 8 -20 6z"/>
<path d="M26050 4166 c0 -2 7 -7 16 -10 8 -3 12 -2 9 4 -6 10 -25 14 -25 6z"/>
<path d="M18618 4143 c7 -3 16 -2 19 1 4 3 -2 6 -13 5 -11 0 -14 -3 -6 -6z"/>
<path d="M18773 4143 c9 -2 23 -2 30 0 6 3 -1 5 -18 5 -16 0 -22 -2 -12 -5z"/>
<path d="M25470 4146 c0 -3 9 -10 20 -16 11 -6 20 -8 20 -6 0 3 -9 10 -20 16
-11 6 -20 8 -20 6z"/>
<path d="M26110 4136 c0 -3 9 -10 20 -16 11 -6 20 -8 20 -6 0 3 -9 10 -20 16
-11 6 -20 8 -20 6z"/>
<path d="M18668 4123 c7 -3 16 -2 19 1 4 3 -2 6 -13 5 -11 0 -14 -3 -6 -6z"/>
<path d="M26230 4066 c0 -3 9 -10 20 -16 11 -6 20 -8 20 -6 0 3 -9 10 -20 16
-11 6 -20 8 -20 6z"/>
<path d="M20929 4033 c-13 -16 -12 -17 4 -4 16 13 21 21 13 21 -2 0 -10 -8
-17 -17z"/>
<path d="M27237 4019 c7 -7 15 -10 18 -7 3 3 -2 9 -12 12 -14 6 -15 5 -6 -5z"/>
<path d="M26667 3989 c7 -7 15 -10 18 -7 3 3 -2 9 -12 12 -14 6 -15 5 -6 -5z"/>
<path d="M26050 3986 c0 -2 7 -7 16 -10 8 -3 12 -2 9 4 -6 10 -25 14 -25 6z"/>
<path d="M26120 3946 c0 -2 7 -7 16 -10 8 -3 12 -2 9 4 -6 10 -25 14 -25 6z"/>
<path d="M19031 3873 c-2 -140 38 -234 143 -339 78 -77 154 -126 261 -168 39
-15 79 -31 90 -36 11 -4 31 -11 45 -15 14 -3 41 -11 60 -16 120 -32 403 -62
399 -42 -1 4 -1 41 0 82 l1 73 30 -4 c17 -3 27 -1 23 3 -4 4 -39 10 -78 13
-177 13 -225 19 -290 33 -91 20 -202 51 -240 68 -76 34 -122 56 -140 67 -11 7
-42 27 -70 45 -104 65 -186 168 -228 283 -3 8 -6 -13 -6 -47z"/>
<path d="M25927 3879 c7 -7 15 -10 18 -7 3 3 -2 9 -12 12 -14 6 -15 5 -6 -5z"/>
<path d="M27187 3869 c7 -7 15 -10 18 -7 3 3 -2 9 -12 12 -14 6 -15 5 -6 -5z"/>
<path d="M26940 3830 c8 -5 20 -10 25 -10 6 0 3 5 -5 10 -8 5 -19 10 -25 10
-5 0 -3 -5 5 -10z"/>
<path d="M27240 3836 c0 -2 7 -7 16 -10 8 -3 12 -2 9 4 -6 10 -25 14 -25 6z"/>
<path d="M27000 3796 c0 -2 7 -7 16 -10 8 -3 12 -2 9 4 -6 10 -25 14 -25 6z"/>
<path d="M20405 3730 c3 -5 8 -10 11 -10 2 0 4 5 4 10 0 6 -5 10 -11 10 -5 0
-7 -4 -4 -10z"/>
<path d="M26180 3736 c0 -3 9 -10 20 -16 11 -6 20 -8 20 -6 0 3 -9 10 -20 16
-11 6 -20 8 -20 6z"/>
<path d="M27117 3729 c7 -7 15 -10 18 -7 3 3 -2 9 -12 12 -14 6 -15 5 -6 -5z"/>
<path d="M20485 3720 c-3 -5 -1 -10 4 -10 6 0 11 5 11 10 0 6 -2 10 -4 10 -3
0 -8 -4 -11 -10z"/>
<path d="M20298 3713 c7 -3 16 -2 19 1 4 3 -2 6 -13 5 -11 0 -14 -3 -6 -6z"/>
<path d="M20338 3713 c7 -3 16 -2 19 1 4 3 -2 6 -13 5 -11 0 -14 -3 -6 -6z"/>
<path d="M20540 3710 c0 -5 5 -10 11 -10 5 0 7 5 4 10 -3 6 -8 10 -11 10 -2 0
-4 -4 -4 -10z"/>
<path d="M20601 3704 c0 -11 3 -14 6 -6 3 7 2 16 -1 19 -3 4 -6 -2 -5 -13z"/>
<path d="M20208 3703 c12 -2 32 -2 45 0 12 2 2 4 -23 4 -25 0 -35 -2 -22 -4z"/>
<path d="M20148 3693 c7 -3 16 -2 19 1 4 3 -2 6 -13 5 -11 0 -14 -3 -6 -6z"/>
<path d="M20114 3676 c-3 -8 -4 -29 -2 -48 3 -29 4 -27 8 15 5 48 3 58 -6 33z"/>
<path d="M33477 3659 c-391 -45 -758 -236 -1014 -527 -434 -495 -525 -1181
-233 -1767 79 -158 171 -285 300 -415 375 -376 905 -540 1423 -440 357 69 688
262 916 533 416 496 498 1167 211 1742 -272 545 -837 891 -1440 884 -52 -1
-126 -5 -163 -10z m493 -49 c664 -142 1152 -672 1241 -1347 16 -127 6 -380
-20 -501 -136 -622 -603 -1089 -1224 -1224 -87 -19 -132 -22 -312 -22 -179 0
-224 3 -308 22 -208 46 -383 119 -545 225 -355 234 -591 580 -683 999 -26 121
-36 374 -20 501 93 706 619 1247 1326 1363 125 21 414 12 545 -16z"/>
<path d="M33425 3394 c-554 -98 -995 -540 -1089 -1093 -20 -120 -21 -331 -1
-447 98 -566 533 -1001 1099 -1099 116 -20 327 -19 447 1 555 95 998 537 1093
1093 20 120 21 331 1 447 -98 566 -532 1000 -1099 1099 -110 19 -341 18 -451
-1z m469 -30 c474 -90 866 -436 1010 -891 81 -259 81 -537 0 -796 -127 -399
-452 -724 -851 -851 -258 -81 -538 -81 -796 0 -399 127 -724 452 -851 851 -44
140 -60 246 -59 398 0 357 132 674 383 925 181 182 396 300 643 355 167 37
355 40 521 9z"/>
<path d="M33510 3150 c-305 -43 -589 -222 -758 -480 -71 -107 -114 -205 -149
-339 -21 -80 -26 -121 -27 -241 -1 -161 11 -239 57 -370 79 -228 226 -416 428
-549 106 -70 204 -113 338 -148 84 -23 116 -26 256 -26 140 0 172 3 256 26
276 73 497 229 647 457 71 107 114 205 149 339 23 84 26 116 26 256 0 140 -3
172 -26 256 -35 134 -78 232 -149 339 -193 293 -512 473 -863 485 -66 2 -149
0 -185 -5z m400 -50 c381 -100 671 -389 769 -770 45 -174 37 -413 -20 -583
-116 -345 -395 -604 -755 -698 -75 -20 -113 -24 -249 -24 -136 0 -174 4 -249
24 -405 106 -703 417 -786 821 -39 189 -18 413 56 600 130 328 438 578 793
645 111 21 330 13 441 -15z"/>
<path d="M33485 2886 c-277 -63 -505 -258 -601 -516 -45 -118 -58 -202 -52
-339 4 -95 11 -133 37 -211 53 -157 140 -285 257 -380 95 -76 160 -112 274
-152 92 -32 100 -33 255 -33 155 0 163 1 255 33 245 84 436 268 519 498 43
117 54 198 49 333 -4 95 -11 133 -37 211 -85 255 -276 445 -531 531 -85 29
-110 32 -230 35 -90 3 -155 -1 -195 -10z m352 -32 c287 -63 529 -306 599 -600
24 -103 22 -268 -5 -372 -51 -197 -176 -372 -339 -476 -146 -92 -267 -128
-437 -129 -374 0 -687 247 -780 618 -23 91 -23 265 -1 359 77 326 356 577 684
616 81 9 195 3 279 -16z"/>
<path d="M33553 2640 c-199 -36 -375 -190 -444 -390 -32 -94 -32 -248 0 -345
58 -176 195 -315 371 -376 93 -32 257 -32 350 0 178 62 313 198 371 376 32 97
32 251 0 345 -60 174 -198 312 -368 369 -72 24 -205 34 -280 21z m226 -35
c234 -56 405 -259 418 -500 19 -324 -252 -592 -577 -572 -197 12 -363 124
-451 302 -60 123 -75 246 -43 369 75 290 366 468 653 401z"/>
<path d="M33570 2381 c-134 -44 -219 -151 -228 -288 -6 -93 17 -159 79 -227
71 -78 124 -101 234 -101 78 0 97 4 141 27 68 36 136 113 157 178 36 112 13
229 -61 312 -63 70 -128 101 -222 104 -41 2 -86 0 -100 -5z m205 -45 c225
-106 223 -420 -3 -524 -73 -33 -162 -33 -234 1 -226 105 -227 419 -3 523 70
33 171 33 240 0z"/>
<path d="M31376 3634 c-23 -21 -26 -28 -15 -35 8 -5 20 -9 27 -9 50 0 135 -70
166 -134 37 -78 -35 -122 -76 -47 -24 42 -49 63 -114 96 -52 26 -117 33 -144
15 -12 -8 -12 -10 -1 -10 25 0 115 -47 137 -72 59 -63 81 -137 48 -156 -28
-15 -52 -2 -78 43 -34 57 -117 112 -182 121 -66 8 -77 -9 -16 -25 58 -15 102
-52 136 -114 24 -42 26 -50 14 -75 -9 -18 -22 -28 -40 -30 -23 -3 -30 2 -41
31 -22 52 -115 119 -207 149 -8 3 -33 -4 -55 -15 l-39 -20 47 -18 c27 -11 64
-32 83 -47 74 -58 159 -214 166 -304 l3 -42 -75 -23 c-94 -30 -215 -39 -305
-24 -88 16 -199 67 -247 115 -42 41 -46 40 -22 -5 20 -40 121 -104 202 -129
46 -14 94 -20 170 -20 150 -1 231 22 427 120 l160 80 165 21 c202 25 203 25
232 56 22 23 23 32 23 151 0 72 -6 151 -14 182 -25 103 -54 200 -60 200 -3 0
-13 -13 -22 -29 -9 -15 -38 -39 -65 -52 -42 -20 -64 -24 -149 -24 -115 0 -159
17 -185 73 -8 17 -17 32 -20 31 -3 0 -18 -11 -34 -25z"/>
<path d="M26950 3646 c0 -2 7 -7 16 -10 8 -3 12 -2 9 4 -6 10 -25 14 -25 6z"/>
<path d="M20588 3623 c7 -3 16 -2 19 1 4 3 -2 6 -13 5 -11 0 -14 -3 -6 -6z"/>
<path d="M20460 3589 c-14 -6 -38 -11 -53 -11 -16 -1 -23 -4 -16 -8 13 -8 78
7 94 21 11 11 7 11 -25 -2z"/>
<path d="M20178 3553 c12 -2 32 -2 45 0 12 2 2 4 -23 4 -25 0 -35 -2 -22 -4z"/>
<path d="M26270 3506 c0 -3 9 -10 20 -16 11 -6 20 -8 20 -6 0 3 -9 10 -20 16
-11 6 -20 8 -20 6z"/>
<path d="M20448 3473 c7 -3 16 -2 19 1 4 3 -2 6 -13 5 -11 0 -14 -3 -6 -6z"/>
<path d="M20348 3457 c-32 -6 -58 -15 -58 -20 0 -5 10 -6 23 -2 12 3 43 9 69
12 26 3 45 9 42 14 -3 5 -8 8 -12 8 -4 -1 -33 -6 -64 -12z"/>
<path d="M26347 3459 c7 -7 15 -10 18 -7 3 3 -2 9 -12 12 -14 6 -15 5 -6 -5z"/>
<path d="M20123 3423 c8 -7 77 -6 85 2 3 3 -16 5 -43 5 -27 0 -45 -3 -42 -7z"/>
<path d="M20220 3410 c-21 -7 -21 -8 -5 -9 11 0 27 4 35 9 18 11 5 11 -30 0z"/>
<path d="M24007 3379 c7 -7 15 -10 18 -7 3 3 -2 9 -12 12 -14 6 -15 5 -6 -5z"/>
<path d="M26487 3379 c7 -7 15 -10 18 -7 3 3 -2 9 -12 12 -14 6 -15 5 -6 -5z"/>
<path d="M23437 3349 c7 -7 15 -10 18 -7 3 3 -2 9 -12 12 -14 6 -15 5 -6 -5z"/>
<path d="M20496 3335 c-11 -8 -16 -15 -10 -15 5 0 18 7 28 15 11 8 16 15 10
15 -5 0 -18 -7 -28 -15z"/>
<path d="M20340 3330 c-22 -6 -23 -8 -6 -15 10 -5 21 -4 25 2 3 6 13 13 21 16
24 9 -9 7 -40 -3z"/>
<path d="M20425 3310 c-3 -5 -2 -10 4 -10 5 0 13 5 16 10 3 6 2 10 -4 10 -5 0
-13 -4 -16 -10z"/>
<path d="M24127 3309 c7 -7 15 -10 18 -7 3 3 -2 9 -12 12 -14 6 -15 5 -6 -5z"/>
<path d="M20355 3290 c-3 -6 1 -7 9 -4 18 7 21 14 7 14 -6 0 -13 -4 -16 -10z"/>
<path d="M23571 3277 c2 -1 13 -9 24 -17 19 -14 19 -14 6 3 -7 9 -18 17 -24
17 -6 0 -8 -1 -6 -3z"/>
<path d="M23880 3276 c0 -3 9 -10 20 -16 11 -6 20 -8 20 -6 0 3 -9 10 -20 16
-11 6 -20 8 -20 6z"/>
<path d="M24020 3196 c0 -3 9 -10 20 -16 11 -6 20 -8 20 -6 0 3 -9 10 -20 16
-11 6 -20 8 -20 6z"/>
<path d="M23780 3156 c0 -3 9 -10 20 -16 11 -6 20 -8 20 -6 0 3 -9 10 -20 16
-11 6 -20 8 -20 6z"/>
<path d="M24620 3025 c0 -2 10 -10 23 -16 20 -11 21 -11 8 4 -13 16 -31 23
-31 12z"/>
<path d="M24690 2986 c0 -3 9 -10 20 -16 11 -6 20 -8 20 -6 0 3 -9 10 -20 16
-11 6 -20 8 -20 6z"/>
<path d="M24760 2946 c0 -2 7 -7 16 -10 8 -3 12 -2 9 4 -6 10 -25 14 -25 6z"/>
<path d="M24180 2926 c0 -3 9 -10 20 -16 11 -6 20 -8 20 -6 0 3 -9 10 -20 16
-11 6 -20 8 -20 6z"/>
<path d="M24540 2896 c0 -3 9 -10 20 -16 11 -6 20 -8 20 -6 0 3 -9 10 -20 16
-11 6 -20 8 -20 6z"/>
<path d="M23777 2799 c7 -7 15 -10 18 -7 3 3 -2 9 -12 12 -14 6 -15 5 -6 -5z"/>
<path d="M24750 2776 c0 -3 9 -10 20 -16 11 -6 20 -8 20 -6 0 3 -9 10 -20 16
-11 6 -20 8 -20 6z"/>
<path d="M23830 2766 c0 -2 7 -7 16 -10 8 -3 12 -2 9 4 -6 10 -25 14 -25 6z"/>
<path d="M25380 2766 c0 -2 7 -7 16 -10 8 -3 12 -2 9 4 -6 10 -25 14 -25 6z"/>
<path d="M25097 2749 c7 -7 15 -10 18 -7 3 3 -2 9 -12 12 -14 6 -15 5 -6 -5z"/>
<path d="M25140 2726 c0 -2 7 -7 16 -10 8 -3 12 -2 9 4 -6 10 -25 14 -25 6z"/>
<path d="M22770 2666 c0 -3 9 -10 20 -16 11 -6 20 -8 20 -6 0 3 -9 10 -20 16
-11 6 -20 8 -20 6z"/>
<path d="M23720 2656 c0 -3 9 -10 20 -16 11 -6 20 -8 20 -6 0 3 -9 10 -20 16
-11 6 -20 8 -20 6z"/>
<path d="M24020 2656 c0 -2 7 -7 16 -10 8 -3 12 -2 9 4 -6 10 -25 14 -25 6z"/>
<path d="M23530 2586 c0 -2 7 -7 16 -10 8 -3 12 -2 9 4 -6 10 -25 14 -25 6z"/>
<path d="M24200 2556 c0 -3 14 -12 30 -21 17 -9 30 -13 30 -11 0 3 -13 12 -30
21 -16 9 -30 13 -30 11z"/>
<path d="M23040 2506 c0 -2 7 -7 16 -10 8 -3 12 -2 9 4 -6 10 -25 14 -25 6z"/>
<path d="M24900 2506 c0 -2 7 -7 16 -10 8 -3 12 -2 9 4 -6 10 -25 14 -25 6z"/>
<path d="M22797 2469 c7 -7 15 -10 18 -7 3 3 -2 9 -12 12 -14 6 -15 5 -6 -5z"/>
<path d="M24100 2436 c0 -3 9 -10 20 -16 11 -6 20 -8 20 -6 0 3 -9 10 -20 16
-11 6 -20 8 -20 6z"/>
<path d="M24177 2389 c7 -7 15 -10 18 -7 3 3 -2 9 -12 12 -14 6 -15 5 -6 -5z"/>
<path d="M23360 2146 c0 -3 14 -12 30 -21 17 -9 30 -13 30 -11 0 3 -13 12 -30
21 -16 9 -30 13 -30 11z"/>
<path d="M23507 2059 c7 -7 15 -10 18 -7 3 3 -2 9 -12 12 -14 6 -15 5 -6 -5z"/>
<path d="M23800 2066 c0 -2 7 -7 16 -10 8 -3 12 -2 9 4 -6 10 -25 14 -25 6z"/>
<path d="M23917 1999 c7 -7 15 -10 18 -7 3 3 -2 9 -12 12 -14 6 -15 5 -6 -5z"/>
<path d="M23957 1979 c7 -7 15 -10 18 -7 3 3 -2 9 -12 12 -14 6 -15 5 -6 -5z"/>
</g>
</svg>
